<svg id="Graphic_elements" data-name="Graphic elements" xmlns="http://www.w3.org/2000/svg" viewBox="0 0 1200 800"><title>job660-113</title><path d="M1137.08,276.52c-9.07-13-27-12.67-40.26-15.87-67.55-16.33-167-.26-235.74-.06-27.28.08-69.12,41.38-24.65,41.25,26.53-.08,210.36-20.38,227.3-.66a21.88,21.88,0,0,1,3.51,5.78C796,545.41,418.36,568.12,114.47,375.2,94.09,362.26,34,391.25,62.55,409.37c312.45,198.35,701,177.69,992.6-35.51a632.86,632.86,0,0,1-20.83,63.52c-15.66,34.74-31.72,65.82-37.17,79.47-13,32.66,50.9,23.94,62.05,3.62,10.49-19.11,19.93-38.16,28.4-57.37C1120.24,400,1162.85,313.41,1137.08,276.52Z" style="fill:#272525"/></svg>