<?xml version="1.0" encoding="UTF-8"?><svg id="Layer_1" xmlns="http://www.w3.org/2000/svg" viewBox="0 0 714.93 714.93"><path d="m80.76,501.76V213.17c0-4.81,3.93-8.74,8.74-8.74h98.82c53.34,0,90.51,39.79,90.51,87.45,0,20.99-6.56,41.1-22.3,56.84-2.62,2.62-2.62,6.12,0,7.87,18.8,12.68,25.8,37.17,25.8,58.59,0,58.15-35.85,95.32-94.01,95.32h-98.82c-4.81,0-8.74-3.94-8.74-8.74Zm107.56-177.96c15.3,0,28.86-13.99,28.86-29.3s-13.56-28.85-28.86-28.85h-41.98c-2.62,0-4.37,1.75-4.37,4.37v49.4c0,2.63,1.75,4.38,4.37,4.38h41.98Zm0,125.49c18.8,0,30.61-16.61,30.61-34.11s-12.24-33.67-30.61-33.67h-41.98c-2.62,0-4.37,1.75-4.37,4.37v59.03c0,2.62,1.75,4.37,4.37,4.37h41.98Z"/><path d="m587.39,208.8h38.04c4.81,0,8.74,3.94,8.74,8.75v106.69c0,3.93-3.5,7-6.99,7h-294.7c-4.81,0-8.74-3.93-8.74-8.74v-104.94c0-4.81,3.94-8.74,8.74-8.74h39.35c4.81,0,8.74,3.93,8.74,8.74v52.47c0,2.62,1.75,4.37,4.37,4.37h189.33c2.62,0,4.37-1.75,4.37-4.37v-52.47c0-4.81,3.94-8.75,8.74-8.75h.01Z"/><path d="m587.39,388.07h38.04c4.81,0,8.74,3.94,8.74,8.75v106.69c0,3.93-3.5,7-6.99,7h-294.7c-4.81,0-8.74-3.93-8.74-8.74v-104.94c0-4.81,3.94-8.74,8.74-8.74h39.35c4.81,0,8.74,3.93,8.74,8.74v52.47c0,2.62,1.75,4.37,4.37,4.37h189.33c2.62,0,4.37-1.75,4.37-4.37v-52.47c0-4.81,3.94-8.75,8.74-8.75h.01Z"/></svg>