<?xml version="1.0" encoding="UTF-8"?> <!-- Generator: Adobe Illustrator 16.0.0, SVG Export Plug-In . SVG Version: 6.00 Build 0) --> <svg xmlns="http://www.w3.org/2000/svg" xmlns:xlink="http://www.w3.org/1999/xlink" version="1.1" id="Calque_1" x="0px" y="0px" width="552px" height="310px" viewBox="365 212 552 310" xml:space="preserve"> <g> <defs> <rect id="SVGID_1_" width="1280" height="720"></rect> </defs> <clipPath id="SVGID_2_"> <use xlink:href="#SVGID_1_" overflow="visible"></use> </clipPath> <path clip-path="url(#SVGID_2_)" fill="#00949A" d="M366,260.541v-0.253c-0.033-25.264,20.972-45.987,50.9-46.022 c18.214-0.025,29.234,5.673,38.698,13.789l-11.133,11.566c-7.918-6.593-16.391-11.025-27.688-11.009 c-18.777,0.019-32.591,14.009-32.569,31.399l0.003,0.256c0.025,17.395,13.732,31.467,32.645,31.437 c12.143-0.011,19.897-4.345,28.364-11.462l11.163,10.147c-10.29,9.656-21.579,15.771-40.073,15.796 C387.516,306.224,366.033,286.063,366,260.541"></path> <path clip-path="url(#SVGID_2_)" fill="#00949A" d="M467.354,260.409v-0.253c-0.033-25.009,21.395-45.987,51.743-46.025 c30.353-0.039,51.551,20.629,51.581,45.638v0.256c0.035,25.009-21.39,45.987-51.746,46.028 C488.586,306.09,467.383,285.417,467.354,260.409 M552.475,260.298l-0.003-0.253c-0.022-17.266-14.014-31.596-33.639-31.569 c-19.624,0.022-33.293,14.138-33.271,31.402l0.003,0.255c0.022,17.264,14.012,31.468,33.631,31.438 C538.822,291.549,552.493,277.563,552.475,260.298"></path> <path clip-path="url(#SVGID_2_)" fill="#00949A" d="M709.237,266.57v-51.268h17.36v50.612c0.024,16.504,9.491,25.251,25.021,25.229 c15.39-0.022,24.834-8.283,24.813-24.661v-51.18h17.362v50.395c0.035,26.539-16.608,39.891-42.436,39.924 C725.661,305.657,709.273,292.345,709.237,266.57"></path> <polygon clip-path="url(#SVGID_2_)" fill="#00949A" points="896.202,215.146 866.023,257.228 836.068,215.146 817.572,215.146 817.572,304.137 834.688,304.137 834.688,240.639 866.023,282.243 897.451,240.304 897.451,304.137 914.811,304.137 914.811,215.146 "></polygon> <path clip-path="url(#SVGID_2_)" fill="#B88E44" d="M666.15,271.515c12.711-4.084,21.793-14.703,21.793-27.203 c0-16.023-14.904-29.011-33.29-29.011h-64.624v15.365l64.621-0.011c8.656,0,15.672,6.118,15.672,13.657 c0,7.548-7.016,13.663-15.672,13.663h-64.566v15.404l38.184-0.028l-0.047,0.028c8.314-0.011,15.074,1.635,20.261,4.924 c9.062,5.901,41.206,46.78,41.206,46.78h21.917C711.605,325.083,682.61,288.213,666.15,271.515"></path> <polygon clip-path="url(#SVGID_2_)" fill="#00949A" points="366.998,345.108 366.998,405.516 413.962,405.516 413.962,395.852 378.762,395.852 378.762,345.108 "></polygon> <path clip-path="url(#SVGID_2_)" fill="#00949A" d="M417.503,365.042c5.835-0.949,8.607-3.626,8.226-8.113h-4.974v-11.822h12.722 v10.098c0,9.579-5.069,13.633-14.731,14.325L417.503,365.042z"></path> <polygon clip-path="url(#SVGID_2_)" fill="#00949A" points="448.112,345.108 497.755,345.108 497.755,354.602 459.876,354.602 459.876,370.307 493.449,370.307 493.449,379.798 459.876,379.798 459.876,396.022 498.233,396.022 498.233,405.516 448.112,405.516 "></polygon> <path clip-path="url(#SVGID_2_)" fill="#00949A" d="M537.644,376.521c8.896,0,14.443-4.488,14.443-10.787v-0.176 c0-7.076-5.643-10.787-14.443-10.787h-13.679v21.75H537.644z M512.201,345.108h26.398c15.689,0,25.444,8.025,25.444,20.193v0.173 c0,13.551-12.052,20.626-26.783,20.626h-13.295v19.416h-11.764V345.108z"></path> <path clip-path="url(#SVGID_2_)" fill="#00949A" d="M609.957,381.526l-11.571-24.164l-11.479,24.164H609.957z M593.125,344.677 h10.905l29.458,60.839h-12.433l-6.793-14.586h-31.66l-6.887,14.586h-12.051L593.125,344.677z"></path> <path clip-path="url(#SVGID_2_)" fill="#00949A" d="M673.951,375.053c8.418,0,13.775-3.969,13.775-10.095v-0.176 c0-6.469-5.166-10.01-13.868-10.01h-17.124v20.281H673.951z M644.97,345.108h29.844c8.418,0,15.016,2.242,19.319,6.041 c3.54,3.28,5.55,7.765,5.55,13.032v0.17c0,9.926-6.601,15.882-15.878,18.297l18.076,22.868h-13.965l-16.452-21.057h-14.729v21.057 H644.97V345.108z"></path> <path clip-path="url(#SVGID_2_)" fill="#00949A" d="M711.164,375.484v-0.174c0-16.913,14.346-31.24,34.53-31.24 c11.669,0,18.843,2.934,25.729,8.198l-7.46,8.026c-5.166-3.969-10.235-6.472-18.749-6.472c-12.338,0-21.714,9.752-21.714,21.314 v0.173c0,12.429,9.088,21.576,22.767,21.576c6.313,0,12.052-1.811,16.164-4.574v-11.307h-17.121v-9.232h28.503v25.371 c-6.598,5.092-16.066,9.406-27.93,9.406C724.937,406.551,711.164,393.088,711.164,375.484"></path> <polygon clip-path="url(#SVGID_2_)" fill="#00949A" points="789.121,345.108 800.026,345.108 835.894,386.877 835.894,345.108 847.469,345.108 847.469,405.516 837.617,405.516 800.695,362.54 800.695,405.516 789.121,405.516 "></polygon> <polygon clip-path="url(#SVGID_2_)" fill="#00949A" points="864.688,345.108 914.331,345.108 914.331,354.602 876.452,354.602 876.452,370.307 910.027,370.307 910.027,379.798 876.452,379.798 876.452,396.022 914.81,396.022 914.81,405.516 864.688,405.516 "></polygon> <line clip-path="url(#SVGID_2_)" fill="none" stroke="#B88E44" stroke-width="2" stroke-linecap="round" stroke-linejoin="round" stroke-miterlimit="10" x1="369.057" y1="447.705" x2="912.75" y2="447.705"></line> <polygon clip-path="url(#SVGID_2_)" fill="#00949A" points="367.556,489.759 367.556,516.404 383.22,516.404 383.22,513.448 370.863,513.448 370.863,489.759 "></polygon> <polygon clip-path="url(#SVGID_2_)" fill="#00949A" points="387.889,489.759 387.889,516.404 405.31,516.404 405.31,513.448 391.196,513.448 391.196,504.259 405.03,504.259 405.03,501.306 391.196,501.306 391.196,492.715 405.31,492.715 405.31,489.759 "></polygon> <path clip-path="url(#SVGID_2_)" fill="#00949A" d="M410.931,510.133c1.754,1.957,4.625,3.796,8.371,3.796 c4.743,0,6.258-2.559,6.258-4.596c0-3.194-3.228-4.075-6.735-5.032c-4.266-1.118-9.011-2.317-9.011-7.552 c0-4.394,3.908-7.392,9.129-7.392c4.067,0,7.216,1.359,9.447,3.717l-1.993,2.438c-1.992-2.198-4.784-3.198-7.693-3.198 c-3.189,0-5.462,1.719-5.462,4.236c0,2.676,3.071,3.477,6.458,4.394c4.345,1.161,9.288,2.517,9.288,8.11 c0,3.876-2.632,7.831-9.806,7.831c-4.623,0-8.012-1.758-10.205-4.235L410.931,510.133z"></path> <polygon clip-path="url(#SVGID_2_)" fill="#00949A" points="462.914,489.759 462.914,510.814 447.61,489.759 444.22,489.759 444.22,516.404 447.53,516.404 447.53,494.911 463.035,516.404 466.224,516.404 466.224,489.759 "></polygon> <path clip-path="url(#SVGID_2_)" fill="#00949A" d="M484.564,492.275c-5.979,0-9.766,4.595-9.766,10.828 c0,6.191,3.788,10.824,9.766,10.824c5.939,0,9.766-4.633,9.766-10.824C494.33,496.87,490.503,492.275,484.564,492.275 M484.564,489.319c7.853,0,13.194,5.912,13.194,13.784c0,7.868-5.341,13.78-13.194,13.78c-7.894,0-13.194-5.912-13.194-13.78 C471.37,495.231,476.67,489.319,484.564,489.319"></path> <path clip-path="url(#SVGID_2_)" fill="#00949A" d="M502.945,489.758h3.307v16.221c0,4.875,2.633,7.949,7.534,7.949 c4.903,0,7.535-3.074,7.535-7.949v-16.221h3.307v16.26c0,6.632-3.626,10.866-10.842,10.866c-7.215,0-10.841-4.273-10.841-10.825 V489.758z"></path> <polygon clip-path="url(#SVGID_2_)" fill="#00949A" points="549.826,489.759 540.856,512.769 531.887,489.759 528.102,489.759 538.784,516.404 542.89,516.404 553.614,489.759 "></polygon> <polygon clip-path="url(#SVGID_2_)" fill="#00949A" points="557.084,489.759 557.084,516.404 574.505,516.404 574.505,513.448 560.394,513.448 560.394,504.259 574.225,504.259 574.225,501.306 560.394,501.306 560.394,492.715 574.505,492.715 574.505,489.759 "></polygon> <path clip-path="url(#SVGID_2_)" fill="#00949A" d="M589.772,492.715l5.741,14.819h-11.519L589.772,492.715z M587.702,489.759 l-10.685,26.646h3.667l2.352-5.912h13.471l2.355,5.912h3.667l-10.721-26.646H587.702z"></path> <path clip-path="url(#SVGID_2_)" fill="#00949A" d="M604.965,489.758h3.307v16.221c0,4.875,2.632,7.949,7.534,7.949 c4.905,0,7.535-3.074,7.535-7.949v-16.221h3.31v16.26c0,6.632-3.629,10.866-10.845,10.866c-7.213,0-10.841-4.273-10.841-10.825 V489.758z"></path> <polygon clip-path="url(#SVGID_2_)" fill="#00949A" points="650.611,489.759 642.758,500.425 634.865,489.759 630.838,489.759 640.604,502.741 630.243,516.404 634.269,516.404 642.758,505.062 651.248,516.404 655.236,516.404 644.91,502.703 654.635,489.759 "></polygon> <polygon clip-path="url(#SVGID_2_)" fill="#00949A" points="669.152,489.761 669.152,516.405 686.573,516.405 686.573,513.449 672.459,513.449 672.459,504.261 686.293,504.261 686.293,501.305 672.459,501.305 672.459,492.717 686.573,492.717 686.573,489.761 "></polygon> <path clip-path="url(#SVGID_2_)" fill="#00949A" d="M702.12,492.714h-6.977v10.147h6.977c3.151,0,5.304-2.078,5.304-5.072 C707.424,494.792,705.271,492.714,702.12,492.714 M691.837,489.758h10.682c5.344,0,8.333,3.675,8.333,8.031 c0,4.353-3.071,8.028-8.333,8.028h-7.375v10.589h-3.307V489.758z"></path> <path clip-path="url(#SVGID_2_)" fill="#00949A" d="M722.173,492.715l5.742,14.819h-11.522L722.173,492.715z M720.101,489.759 l-10.682,26.646h3.667l2.352-5.912h13.472l2.352,5.912h3.67l-10.724-26.646H720.101z"></path> <path clip-path="url(#SVGID_2_)" fill="#00949A" d="M748.685,492.715h-6.977v10.188h6.977c3.148,0,5.304-2.118,5.304-5.112 C753.988,494.793,751.833,492.715,748.685,492.715 M747.011,505.817h-5.303v10.586h-3.307v-26.645h10.682 c4.864,0,8.333,3.115,8.333,8.031c0,4.792-3.27,7.43-6.897,7.748l7.175,10.865h-3.905L747.011,505.817z"></path> <path clip-path="url(#SVGID_2_)" fill="#00949A" d="M775.236,489.319c4.704,0,7.971,2.078,10.323,4.993l-2.63,1.638 c-1.674-2.157-4.504-3.675-7.693-3.675c-5.822,0-10.243,4.474-10.243,10.828c0,6.31,4.421,10.865,10.243,10.865 c3.189,0,5.819-1.559,7.133-2.876v-5.435h-9.126v-2.956h12.437v9.628c-2.473,2.756-6.098,4.595-10.443,4.595 c-7.575,0-13.671-5.552-13.671-13.821C761.565,494.83,767.661,489.319,775.236,489.319"></path> <polygon clip-path="url(#SVGID_2_)" fill="#00949A" points="809.76,489.759 809.76,510.814 794.453,489.759 791.066,489.759 791.066,516.404 794.373,516.404 794.373,494.911 809.878,516.404 813.067,516.404 813.067,489.759 "></polygon> <path clip-path="url(#SVGID_2_)" fill="#00949A" d="M829.297,492.715l5.739,14.819h-11.522L829.297,492.715z M827.222,489.759 l-10.682,26.646h3.667l2.352-5.912h13.474l2.353,5.912h3.667l-10.724-26.646H827.222z"></path> <polygon clip-path="url(#SVGID_2_)" fill="#00949A" points="864.216,489.759 864.216,510.814 848.912,489.759 845.521,489.759 845.521,516.404 848.832,516.404 848.832,494.911 864.337,516.404 867.526,516.404 867.526,489.759 "></polygon> <polygon clip-path="url(#SVGID_2_)" fill="#00949A" points="871.913,489.759 871.913,492.715 880.325,492.715 880.325,516.404 883.636,516.404 883.636,492.715 892.084,492.715 892.084,489.759 "></polygon> <path clip-path="url(#SVGID_2_)" fill="#00949A" d="M896.712,510.133c1.754,1.957,4.622,3.796,8.371,3.796 c4.743,0,6.258-2.559,6.258-4.596c0-3.194-3.229-4.075-6.735-5.032c-4.266-1.118-9.011-2.317-9.011-7.552 c0-4.394,3.908-7.392,9.129-7.392c4.067,0,7.215,1.359,9.447,3.717l-1.993,2.438c-1.992-2.198-4.784-3.198-7.693-3.198 c-3.188,0-5.462,1.719-5.462,4.236c0,2.676,3.071,3.477,6.458,4.394c4.346,1.161,9.288,2.517,9.288,8.11 c0,3.876-2.632,7.831-9.807,7.831c-4.622,0-8.011-1.758-10.204-4.235L896.712,510.133z"></path> </g> </svg> 